<svg xmlns="http://www.w3.org/2000/svg" viewBox="0 0 14 14"><path fill="white" fill-rule="nonzero" d="M7 0C10.87 0 14 2.98 14 6.67L14 9.18C14 9.68 13.7 10.14 13.23 10.37L11.2 11.33L11.2 12C11.2 13.06 10.33 13.94 9.22 14L9.06 14C9.08 13.93 9.09 13.85 9.1 13.78L9.1 13.67L9.1 13.33C9.1 12.63 8.53 12.05 7.8 12L7.7 12L6.3 12C5.56 12 4.96 12.54 4.9 13.23L4.9 13.33L4.9 13.67C4.9 13.78 4.91 13.89 4.94 14L4.9 14C3.74 14 2.8 13.1 2.8 12L2.8 11.33L0.77 10.37C0.3 10.14 0 9.68 0 9.18L0 6.67C0 2.98 3.13 0 7 0ZM7 1.33C3.97 1.33 1.49 3.63 1.4 6.5L1.4 6.67L1.4 9.18L4.2 10.51L4.2 11.57L4.25 11.51C4.73 11.02 5.41 10.71 6.16 10.67L6.3 10.67L7.75 10.67L7.91 10.67C8.61 10.72 9.23 11.01 9.69 11.46L9.8 11.57L9.8 10.51L12.6 9.18L12.6 6.67C12.6 3.72 10.09 1.33 7 1.33ZM4.2 6C4.97 6 5.6 6.6 5.6 7.33C5.6 8.07 4.97 8.67 4.2 8.67C3.43 8.67 2.8 8.07 2.8 7.33C2.8 6.6 3.43 6 4.2 6ZM9.8 6C10.57 6 11.2 6.6 11.2 7.33C11.2 8.07 10.57 8.67 9.8 8.67C9.03 8.67 8.4 8.07 8.4 7.33C8.4 6.6 9.03 6 9.8 6Z"/></svg>

