<svg xmlns="http://www.w3.org/2000/svg" viewBox="0 0 14 15"><path fill="white" fill-rule="nonzero" d="M4.87 2L6.55 0.2C6.8 -0.07 7.2 -0.07 7.45 0.2L9.13 2L11.5 2C11.85 2 12.14 2.3 12.14 2.68L12.14 5.22L13.81 7.01C14.06 7.28 14.06 7.72 13.81 7.99L12.14 9.78L12.14 12.32C12.14 12.7 11.85 13 11.5 13L9.13 13L7.45 14.8C7.2 15.07 6.8 15.07 6.55 14.8L4.87 13L2.5 13C2.15 13 1.86 12.7 1.86 12.32L1.86 9.78L0.19 7.99C-0.06 7.72 -0.06 7.28 0.19 7.01L1.86 5.22L1.86 2.68C1.86 2.3 2.15 2 2.5 2L4.87 2ZM3.15 3.37L3.15 5.79L1.55 7.5L3.15 9.21L3.15 11.63L5.4 11.63L7 13.34L8.6 11.63L10.85 11.63L10.85 9.21L12.45 7.5L10.85 5.79L10.85 3.37L8.6 3.37L7 1.66L5.4 3.37L3.15 3.37ZM7 10.25C5.58 10.25 4.43 9.02 4.43 7.5C4.43 5.98 5.58 4.75 7 4.75C8.42 4.75 9.57 5.98 9.57 7.5C9.57 9.02 8.42 10.25 7 10.25ZM7 8.88C7.71 8.88 8.28 8.26 8.28 7.5C8.28 6.74 7.71 6.12 7 6.12C6.29 6.12 5.72 6.74 5.72 7.5C5.72 8.26 6.29 8.88 7 8.88Z"/></svg>

