<svg xmlns="http://www.w3.org/2000/svg" viewBox="0 0 14 14"><path fill="white" fill-rule="nonzero" d="M7 14C3.13 14 0 10.87 0 7C0 3.13 3.13 0 7 0C10.87 0 14 3.13 14 7C14 10.87 10.87 14 7 14ZM7 12.6C10.09 12.6 12.6 10.09 12.6 7C12.6 3.91 10.09 1.4 7 1.4C3.91 1.4 1.4 3.91 1.4 7C1.4 10.09 3.91 12.6 7 12.6ZM3.5 9.32C4.96 9.22 6.38 8.61 7.49 7.49C8.61 6.38 9.22 4.96 9.32 3.5C9.55 3.65 9.77 3.83 9.97 4.03C11.61 5.67 11.61 8.33 9.97 9.97C8.33 11.61 5.67 11.61 4.03 9.97C3.83 9.77 3.65 9.55 3.5 9.32Z"/></svg>

